<svg width="34" height="20" viewBox="0 0 34 20" fill="none" xmlns="http://www.w3.org/2000/svg">
<g filter="url(#filter0_d)">
<rect width="28" height="9" rx="2" transform="matrix(0.978148 -0.20791 0.207913 0.978147 0.208008 6.79956)" fill="#FCDD6F"/>
</g>
<path d="M5.08495 12.2695L7.21462 11.8168L7.38589 12.6225L4.25323 13.2884L3.21854 8.42058L4.22153 8.20739L5.08495 12.2695ZM8.92045 12.2963L7.9509 12.5024L7.18199 8.88501L8.15154 8.67892L8.92045 12.2963ZM6.92617 7.96097C6.89538 7.81609 6.91795 7.68666 6.9939 7.57268C7.07207 7.45822 7.19474 7.38323 7.3619 7.3477C7.52684 7.31264 7.66829 7.33149 7.78625 7.40426C7.90422 7.47703 7.9786 7.58585 8.0094 7.73072C8.04067 7.87783 8.0161 8.00885 7.9357 8.12378C7.85753 8.23823 7.73709 8.31275 7.57438 8.34734C7.41168 8.38192 7.27022 8.36307 7.15003 8.29078C7.03206 8.21801 6.95744 8.10807 6.92617 7.96097ZM9.85661 8.3165L9.97269 8.71464C10.1622 8.34589 10.4754 8.11509 10.9122 8.02223C11.3781 7.92322 11.737 8.03911 11.989 8.36992C12.1649 7.94815 12.488 7.68729 12.9583 7.58732C13.3506 7.50394 13.667 7.55667 13.9075 7.7455C14.1475 7.9321 14.3163 8.25497 14.4139 8.71411L14.9049 11.0243L13.9354 11.2304L13.445 8.92354C13.4014 8.71848 13.3296 8.57768 13.2294 8.50112C13.1288 8.42234 12.9771 8.4045 12.7743 8.44761C12.4845 8.5092 12.3133 8.69003 12.2606 8.99009L12.792 11.4734L11.8258 11.6788L11.3361 9.37529C11.2916 9.16578 11.2181 9.02298 11.1158 8.9469C11.0134 8.87082 10.8631 8.85386 10.6647 8.89602C10.3905 8.95429 10.2163 9.11013 10.1421 9.36353L10.6857 11.9211L9.71949 12.1265L8.95058 8.50908L9.85661 8.3165ZM16.6702 10.6491L15.7006 10.8552L14.9317 7.23776L15.9013 7.03168L16.6702 10.6491ZM14.6759 6.31372C14.6451 6.16885 14.6677 6.03942 14.7436 5.92543C14.8218 5.81098 14.9445 5.73598 15.1116 5.70045C15.2766 5.66539 15.418 5.68425 15.536 5.75701C15.6539 5.82978 15.7283 5.9386 15.7591 6.08348C15.7904 6.23058 15.7658 6.3616 15.6854 6.47653C15.6072 6.59099 15.4868 6.66551 15.3241 6.70009C15.1614 6.73468 15.0199 6.71582 14.8997 6.64353C14.7818 6.57076 14.7072 6.46083 14.6759 6.31372ZM17.668 5.72664L17.8571 6.61596L18.4756 6.48449L18.6262 7.19326L18.0077 7.32473L18.3915 9.1301C18.4199 9.26383 18.4659 9.35422 18.5295 9.40128C18.5931 9.44833 18.6973 9.45646 18.8422 9.42567C18.9492 9.40293 19.0422 9.37499 19.1214 9.34186L19.277 10.074C19.0999 10.1723 18.911 10.2427 18.7104 10.2853C18.0328 10.4293 17.6146 10.1606 17.4558 9.47923L17.0415 7.5301L16.5133 7.64238L16.3626 6.93361L16.8909 6.82133L16.7018 5.93202L17.668 5.72664ZM21.4619 9.70047C20.9315 9.81323 20.4645 9.74243 20.061 9.48808C19.6597 9.23326 19.4015 8.83504 19.2864 8.29343L19.2665 8.19982C19.1893 7.83652 19.1906 7.49729 19.2703 7.18215C19.3496 6.86479 19.5011 6.60197 19.7247 6.39369C19.9501 6.18272 20.2277 6.04217 20.5576 5.97206C21.0524 5.86688 21.4745 5.94023 21.8239 6.1921C22.1755 6.4435 22.4122 6.85561 22.534 7.42842L22.6178 7.82293L20.3143 8.31256C20.3957 8.54218 20.5296 8.71174 20.7159 8.82122C20.9045 8.93023 21.1192 8.95915 21.3599 8.90799C21.7321 8.82887 21.9943 8.6322 22.1465 8.31798L22.7342 8.74865C22.6329 8.9845 22.4709 9.18666 22.2481 9.35515C22.0249 9.52141 21.7628 9.63652 21.4619 9.70047ZM20.7206 6.75509C20.5289 6.79584 20.3866 6.89364 20.2937 7.04849C20.2031 7.20288 20.1666 7.40398 20.1843 7.6518L21.5283 7.36613L21.512 7.28923C21.462 7.07621 21.369 6.92359 21.233 6.83138C21.0964 6.73694 20.9256 6.71151 20.7206 6.75509ZM22.9465 7.39664C22.8267 6.83274 22.8571 6.35686 23.0379 5.969C23.221 5.58066 23.532 5.33983 23.9711 5.2465C24.3233 5.17165 24.6421 5.24132 24.9275 5.45553L24.5353 3.61004L25.5048 3.40396L26.5964 8.53923L25.7238 8.72471L25.5952 8.35018C25.4185 8.70224 25.1406 8.91854 24.7617 8.99908C24.336 9.08957 23.9584 8.99512 23.6288 8.71575C23.3009 8.43368 23.0735 7.99397 22.9465 7.39664ZM23.9277 7.26148C23.9997 7.60026 24.1139 7.84737 24.2704 8.0028C24.4269 8.15823 24.6177 8.21201 24.8429 8.16417C25.1415 8.10068 25.3254 7.92998 25.3944 7.65207L25.091 6.22449C24.9171 5.99821 24.6819 5.91657 24.3855 5.97958C23.9197 6.0786 23.7671 6.5059 23.9277 7.26148Z" fill="black"/>
<defs>
<filter id="filter0_d" x="0.57959" y="1.34985" width="32.5159" height="17.8814" filterUnits="userSpaceOnUse" color-interpolation-filters="sRGB">
<feFlood flood-opacity="0" result="BackgroundImageFix"/>
<feColorMatrix in="SourceAlpha" type="matrix" values="0 0 0 0 0 0 0 0 0 0 0 0 0 0 0 0 0 0 127 0"/>
<feOffset dx="2" dy="2"/>
<feGaussianBlur stdDeviation="1"/>
<feColorMatrix type="matrix" values="0 0 0 0 0 0 0 0 0 0 0 0 0 0 0 0 0 0 0.1 0"/>
<feBlend mode="normal" in2="BackgroundImageFix" result="effect1_dropShadow"/>
<feBlend mode="normal" in="SourceGraphic" in2="effect1_dropShadow" result="shape"/>
</filter>
</defs>
</svg>
