<svg width="26" height="26" viewBox="0 0 26 26" fill="none" xmlns="http://www.w3.org/2000/svg">
<path fill-rule="evenodd" clip-rule="evenodd" d="M20.5836 18.1459L21.9811 19.5434C22.6636 20.2259 22.1869 21.3959 21.2119 21.3959H4.77776C3.81359 21.3959 3.33693 20.2259 4.01943 19.5434L5.41693 18.1459V11.6459C5.41693 8.01675 7.97359 4.98341 11.3753 4.24675V2.97925C11.3753 2.08008 12.1011 1.35425 13.0003 1.35425C13.8994 1.35425 14.6253 2.08008 14.6253 2.97925V4.24675C18.0269 4.98341 20.5836 8.01675 20.5836 11.6459V18.1459ZM15.1561 22.4901C15.1561 23.6817 14.1919 24.6459 13.0003 24.6459C11.8086 24.6459 10.8444 23.6817 10.8444 22.4901H15.1561Z" fill="#C7C7C7"/>
</svg>
