<svg width="26" height="26" viewBox="0 0 26 26" fill="none" xmlns="http://www.w3.org/2000/svg">
<path d="M13.5124 3.51744C11.3349 1.33994 8.07403 0.895774 5.45236 2.17411L9.38486 6.10661C9.80736 6.52911 9.80736 7.21161 9.38486 7.63411L7.66236 9.35661C7.23986 9.78994 6.55736 9.78994 6.13486 9.35661L2.20236 5.42411C0.93486 8.05661 1.37903 11.2958 3.55653 13.4733C5.57153 15.4883 8.51819 16.0191 11.0207 15.0766L19.644 23.6999C20.7599 24.8158 22.5582 24.8158 23.6632 23.6999C24.779 22.5841 24.779 20.7858 23.6632 19.6808L15.0832 11.0899C16.0799 8.55494 15.5599 5.56494 13.5124 3.51744Z" fill="#C4C4C4"/>
</svg>
