<svg width="28" height="26" viewBox="0 0 28 26" fill="none" xmlns="http://www.w3.org/2000/svg">
<path d="M5.66406 5.73438H23.3352L21.5681 16.337H7.43117L5.66406 5.73438Z" fill="#C7C7C7" stroke="#C7C7C7" stroke-width="1.5" stroke-linecap="round" stroke-linejoin="round"/>
<path d="M9.19858 22.2272C9.84921 22.2272 10.3767 21.6998 10.3767 21.0492C10.3767 20.3985 9.84921 19.8711 9.19858 19.8711C8.54795 19.8711 8.02051 20.3985 8.02051 21.0492C8.02051 21.6998 8.54795 22.2272 9.19858 22.2272Z" stroke="#CACACA" stroke-width="1.5" stroke-linecap="round" stroke-linejoin="round"/>
<path d="M19.8011 22.2272C20.4518 22.2272 20.9792 21.6998 20.9792 21.0492C20.9792 20.3985 20.4518 19.8711 19.8011 19.8711C19.1505 19.8711 18.623 20.3985 18.623 21.0492C18.623 21.6998 19.1505 22.2272 19.8011 22.2272Z" stroke="#CACACA" stroke-width="1.5" stroke-linecap="round" stroke-linejoin="round"/>
<path d="M5.6641 5.73438H2.12988" stroke="#CACACA" stroke-width="1.5" stroke-linecap="round" stroke-linejoin="round"/>
</svg>
