<svg width="28" height="28" viewBox="0 0 28 28" fill="none" xmlns="http://www.w3.org/2000/svg">
<path fill-rule="evenodd" clip-rule="evenodd" d="M3.83334 14C3.83334 8.38842 8.38844 3.83333 14 3.83333C19.6116 3.83333 24.1667 8.38842 24.1667 14C24.1667 19.6116 19.6116 24.1667 14 24.1667C8.38844 24.1667 3.83334 19.6116 3.83334 14ZM14 2.33333C7.56001 2.33333 2.33334 7.56 2.33334 14C2.33334 20.44 7.56001 25.6667 14 25.6667C20.44 25.6667 25.6667 20.44 25.6667 14C25.6667 7.56 20.44 2.33333 14 2.33333ZM7 14C7 10.134 10.134 7 14 7C17.866 7 21 10.134 21 14C21 17.866 17.866 21 14 21C10.134 21 7 17.866 7 14Z" fill="#FB2A75"/>
</svg>
