<svg width="36" height="36" viewBox="0 0 36 36" fill="none" xmlns="http://www.w3.org/2000/svg">
<path d="M33 18L28.5 22.5L24 18" stroke="white" stroke-width="1.5" stroke-linecap="square" stroke-linejoin="round"/>
<path d="M3 18L7.5 13.5L12 18" stroke="white" stroke-width="1.5" stroke-linecap="square" stroke-linejoin="round"/>
<path d="M28.524 21V18.0751C28.5244 16.1523 28.0005 14.2659 27.0088 12.6186C26.0171 10.9714 24.595 9.62568 22.8956 8.72629C21.1962 7.82691 19.2837 7.40787 17.3639 7.51425C15.4441 7.62063 13.5896 8.24841 12 9.33005" stroke="white" stroke-width="1.5" stroke-linecap="square" stroke-linejoin="round"/>
<path d="M24.024 26.7675C22.4344 27.8491 20.5799 28.4769 18.6601 28.5833C16.7403 28.6897 14.8278 28.2706 13.1284 27.3713C11.429 26.4719 10.0069 25.1262 9.01521 23.4789C8.02349 21.8317 7.49964 19.9452 7.5 18.0225V15" stroke="white" stroke-width="1.5" stroke-linecap="square" stroke-linejoin="round"/>
<path d="M7.5 15V13.5" stroke="white" stroke-width="1.5" stroke-linecap="round" stroke-linejoin="round"/>
<path d="M28.5 22.5V21" stroke="white" stroke-width="1.5" stroke-linecap="round" stroke-linejoin="round"/>
</svg>
