<svg width="100" height="36" viewBox="0 0 100 36" fill="none" xmlns="http://www.w3.org/2000/svg">
<rect x="0.75" y="0.75" width="98.5" height="34.5" rx="17.25" fill="black" fill-opacity="0.4"/>
<path d="M42.7861 10.7345H60.4572L58.6901 21.3372H44.5532L42.7861 10.7345Z" stroke="#FB2A75" stroke-width="1.5" stroke-linecap="round" stroke-linejoin="round"/>
<path d="M46.3207 27.2275C46.9713 27.2275 47.4987 26.7 47.4987 26.0494C47.4987 25.3988 46.9713 24.8713 46.3207 24.8713C45.67 24.8713 45.1426 25.3988 45.1426 26.0494C45.1426 26.7 45.67 27.2275 46.3207 27.2275Z" stroke="#FB2A75" stroke-width="1.5" stroke-linecap="round" stroke-linejoin="round"/>
<path d="M56.9232 27.2275C57.5738 27.2275 58.1013 26.7 58.1013 26.0494C58.1013 25.3988 57.5738 24.8713 56.9232 24.8713C56.2726 24.8713 55.7451 25.3988 55.7451 26.0494C55.7451 26.7 56.2726 27.2275 56.9232 27.2275Z" stroke="#FB2A75" stroke-width="1.5" stroke-linecap="round" stroke-linejoin="round"/>
<path d="M42.7862 10.7345H39.252" stroke="#FB2A75" stroke-width="1.5" stroke-linecap="round" stroke-linejoin="round"/>
<rect x="0.75" y="0.75" width="98.5" height="34.5" rx="17.25" stroke="#FB2A75" stroke-width="1.5"/>
</svg>
