<svg width="21" height="21" viewBox="0 0 21 21" fill="none" xmlns="http://www.w3.org/2000/svg">
<path d="M4.94118 0.25H16.0588C18.6384 0.25 20.75 2.3616 20.75 4.94118V16.0588C20.75 18.6384 18.6384 20.75 16.0588 20.75H4.94118C2.3616 20.75 0.25 18.6384 0.25 16.0588V4.94118C0.25 2.3616 2.3616 0.25 4.94118 0.25Z" fill="#FB2A75" stroke="#828282" stroke-width="0.5"/>
<path d="M8.27674 15.3176L3.58262 10.6235C3.33556 10.3764 3.33556 9.88233 3.58262 9.63527L4.57085 8.64704C4.81791 8.39998 5.31203 8.39998 5.55909 8.64704L8.77085 11.7353L15.565 4.94115C15.812 4.69409 16.3061 4.69409 16.5532 4.94115L17.5414 5.92939C17.7885 6.17645 17.7885 6.67056 17.5414 6.91762L9.26497 15.1941C9.01791 15.6882 8.52379 15.6882 8.27674 15.3176Z" fill="white"/>
</svg>
