<svg width="78" height="36" viewBox="0 0 78 36" fill="none" xmlns="http://www.w3.org/2000/svg">
<path d="M31.5806 10.7345H49.2517L47.4846 21.3372H33.3477L31.5806 10.7345Z" stroke="#FB2A75" stroke-width="1.5" stroke-linecap="round" stroke-linejoin="round"/>
<path d="M35.1151 27.2275C35.7657 27.2275 36.2932 26.7 36.2932 26.0494C36.2932 25.3988 35.7657 24.8713 35.1151 24.8713C34.4645 24.8713 33.937 25.3988 33.937 26.0494C33.937 26.7 34.4645 27.2275 35.1151 27.2275Z" stroke="#FB2A75" stroke-width="1.5" stroke-linecap="round" stroke-linejoin="round"/>
<path d="M45.7179 27.2275C46.3685 27.2275 46.8959 26.7 46.8959 26.0494C46.8959 25.3988 46.3685 24.8713 45.7179 24.8713C45.0672 24.8713 44.5398 25.3988 44.5398 26.0494C44.5398 26.7 45.0672 27.2275 45.7179 27.2275Z" stroke="#FB2A75" stroke-width="1.5" stroke-linecap="round" stroke-linejoin="round"/>
<path d="M31.5809 10.7345H28.0466" stroke="#FB2A75" stroke-width="1.5" stroke-linecap="round" stroke-linejoin="round"/>
<rect x="0.75" y="0.75" width="76.5" height="34.5" rx="17.25" stroke="#FB2A75" stroke-width="1.5"/>
</svg>
