<svg width="28" height="14" viewBox="0 0 28 14" fill="none" xmlns="http://www.w3.org/2000/svg">
<rect width="28" height="14" rx="2" transform="matrix(1 7.8265e-07 5.04117e-07 1 0 0)" fill="#FB2A75"/>
<path d="M11.4289 9.78467L10.4406 9.78467L7.90547 5.74951L7.90547 9.78467L6.91719 9.78467L6.91719 4.09717L7.90547 4.09717L10.4484 8.14795L10.4484 4.09717L11.4289 4.09717L11.4289 9.78467ZM14.5664 9.86279C13.9648 9.86279 13.4766 9.67399 13.1016 9.29639C12.7292 8.91618 12.543 8.41097 12.543 7.78076L12.543 7.66358C12.543 7.2417 12.6237 6.8654 12.7852 6.53467C12.9492 6.20134 13.1784 5.94222 13.4727 5.75733C13.7669 5.57243 14.0951 5.47998 14.457 5.47998C15.0326 5.47998 15.4766 5.66358 15.7891 6.03076C16.1042 6.39795 16.2617 6.91748 16.2617 7.58936L16.2617 7.97217L13.5 7.97217C13.5286 8.32113 13.6445 8.59717 13.8477 8.80029C14.0534 9.00342 14.3112 9.10498 14.6211 9.10498C15.056 9.10498 15.4102 8.9292 15.6836 8.57764L16.1953 9.06592C16.026 9.31852 15.7995 9.51514 15.5156 9.65576C15.2344 9.79378 14.918 9.86279 14.5664 9.86279ZM14.4531 6.2417C14.1927 6.2417 13.9818 6.33285 13.8203 6.51514C13.6615 6.69743 13.5599 6.95134 13.5156 7.27686L15.3242 7.27686L15.3242 7.20655C15.3034 6.88884 15.2188 6.64925 15.0703 6.48779C14.9219 6.32373 14.7161 6.2417 14.4531 6.2417ZM20.9148 8.47608L21.5867 5.55811L22.5125 5.55811L21.3602 9.78467L20.5789 9.78467L19.6727 6.88233L18.782 9.78467L18.0008 9.78467L16.8445 5.55811L17.7703 5.55811L18.4539 8.44483L19.3211 5.55811L20.0359 5.55811L20.9148 8.47608Z" fill="white"/>
</svg>
