<svg width="27" height="38" viewBox="0 0 27 38" fill="none" xmlns="http://www.w3.org/2000/svg">
<path d="M4.25702 14.2814C4.00866 14.1536 3.77804 14.0075 3.54743 13.8248C3.19263 14.7927 2.44756 15.578 2.03954 16.619C1.98632 16.7651 1.9331 16.9112 1.87988 17.0573C2.34112 15.9798 3.17489 15.0119 4.25702 14.2814Z" fill="#C7C7C7"/>
<path d="M9.0462 11.7246C8.97524 12.0899 8.8688 12.4369 8.69141 12.7473C9.18812 12.6925 9.68484 12.656 10.1816 12.6377C9.73806 12.4369 9.34778 12.1081 9.0462 11.7246Z" fill="#C7C7C7"/>
<path d="M13.0375 12.6925C14.1551 12.8752 14.9888 13.8613 14.9888 15.0667V15.2128C14.9888 16.5094 13.9599 17.5869 12.7004 17.6052C11.1038 17.6417 8.99279 17.6782 7.98162 17.6965C7.59134 17.7147 7.27203 18.0435 7.28977 18.4452C7.30751 18.847 7.60908 19.1575 7.99936 19.1575H8.0171C9.04601 19.1392 11.1393 19.0844 12.7359 19.0662C14.776 19.0296 16.4258 17.2947 16.4258 15.2128V15.0667C16.4258 14.4092 16.2661 13.77 15.9823 13.2404C15.3969 12.8934 14.9179 12.3821 14.6163 11.7611C14.5454 11.7064 14.4567 11.6698 14.3857 11.6333C14.0132 12.0899 13.5697 12.4551 13.0375 12.6925Z" fill="#C7C7C7"/>
<path d="M5.71215 13.1308C6.68784 13.1308 7.50387 12.4003 7.64579 11.4324C6.77654 11.5785 5.92503 11.8159 5.109 12.1629C4.82516 12.2725 4.55907 12.4186 4.29297 12.5464C4.64776 12.9116 5.12674 13.1308 5.65893 13.1308H5.71215Z" fill="#C7C7C7"/>
<path d="M11.6902 11.542C12.0805 11.542 12.453 11.4142 12.7546 11.2133C12.7369 11.2133 12.7191 11.2133 12.6836 11.2133C11.974 11.1768 11.2644 11.1768 10.5371 11.1768C10.8564 11.3959 11.229 11.542 11.6547 11.542H11.6902Z" fill="#C7C7C7"/>
<path d="M26.9991 9.95311V6.79368C26.9991 6.31885 26.9104 5.86229 26.733 5.44225C26.6443 5.24136 26.5378 5.04047 26.4137 4.85785C26.2363 4.58391 26.0057 4.32823 25.7573 4.10908C25.1719 3.61599 24.4268 3.30553 23.6108 3.30553H23.5753C23.4689 3.30553 23.3624 3.30553 23.256 3.32379C23.2382 3.32379 23.2382 3.32379 23.2205 3.32379C23.1141 3.34205 23.0254 3.34205 22.9189 3.37858C22.9012 3.37858 22.8834 3.37858 22.8657 3.37858C22.777 3.39684 22.6706 3.43337 22.5819 3.45163C22.5641 3.45163 22.5464 3.46989 22.5286 3.46989C22.4399 3.50642 22.3512 3.54294 22.2625 3.57947C22.2448 3.57947 22.2271 3.59773 22.2271 3.59773C22.1384 3.63425 22.0497 3.68904 21.961 3.72557C21.9432 3.72557 21.9432 3.74383 21.9255 3.74383C21.8368 3.79862 21.7481 3.85341 21.6594 3.90819C21.5707 3.96298 21.4997 4.03603 21.411 4.09082L21.3933 4.10908C21.3223 4.16387 21.2514 4.23692 21.1804 4.30997C21.1627 4.32823 21.1627 4.32823 21.1449 4.3465C21.0917 4.40128 21.0385 4.45607 21.003 4.51086V4.18213C21.003 2.26456 19.4774 0.693978 17.6147 0.693978H17.5792C17.4728 0.693978 17.3664 0.693978 17.2777 0.712241C17.2599 0.712241 17.2422 0.712241 17.2067 0.712241C17.1357 0.730503 17.047 0.748766 16.9406 0.767029C16.9229 0.767029 16.9051 0.767029 16.8874 0.785291C16.7987 0.803554 16.71 0.821816 16.6213 0.858342C16.6035 0.858342 16.5858 0.858342 16.5858 0.876604C16.4971 0.913129 16.4084 0.949655 16.3197 0.98618C16.302 0.98618 16.2842 1.00444 16.2665 1.00444C16.1778 1.04097 16.0891 1.09576 16.0004 1.13228C16.0004 1.13228 15.9827 1.13228 15.9827 1.15054C15.894 1.18707 15.823 1.24186 15.752 1.29664C15.7343 1.29664 15.7166 1.29664 15.6988 1.31491C15.6279 1.36969 15.5392 1.42448 15.4682 1.49753C15.4505 1.51579 15.4327 1.51579 15.4327 1.53406C15.3618 1.58885 15.2908 1.6619 15.2376 1.71668L15.2198 1.73495C15.1489 1.808 15.0957 1.88105 15.0247 1.9541C15.007 1.97236 15.007 1.99062 14.9892 2.00888C14.936 2.08193 14.8828 2.15499 14.8296 2.22804C14.8296 2.20977 14.8118 2.20977 14.8118 2.19151C14.7941 2.15499 14.7941 2.13672 14.7763 2.1002C14.7409 2.02715 14.7231 1.97236 14.6876 1.89931C14.6699 1.86278 14.6522 1.84452 14.6522 1.808C14.6167 1.73495 14.5635 1.6619 14.528 1.58885C14.5102 1.57058 14.5102 1.55232 14.4925 1.55232C14.4393 1.46101 14.3861 1.38796 14.3151 1.31491C14.2974 1.29664 14.2796 1.27838 14.2619 1.26012C14.2087 1.20533 14.1732 1.15054 14.12 1.09576C14.1022 1.07749 14.0845 1.04097 14.049 1.0227C13.9958 0.967917 13.9426 0.913129 13.8894 0.858342C13.8716 0.840079 13.8539 0.821816 13.8361 0.803554C13.7652 0.748766 13.6765 0.675716 13.6055 0.620928C13.5878 0.602665 13.57 0.602665 13.5523 0.584403C13.4813 0.547878 13.4281 0.49309 13.3572 0.456565C13.3217 0.438302 13.3039 0.420039 13.2685 0.401777C13.1975 0.365252 13.1443 0.328727 13.0733 0.310464C13.0556 0.292201 13.0201 0.292201 13.0024 0.273939C12.9137 0.237414 12.825 0.200888 12.7185 0.164363C12.7008 0.164363 12.683 0.164363 12.683 0.146101C12.5943 0.127838 12.5234 0.0913129 12.4347 0.0730503C12.3992 0.0730503 12.3637 0.0547878 12.346 0.0547878C12.275 0.0365252 12.2041 0.0365252 12.1331 0.0182626C12.0976 0.0182626 12.0799 0.0182626 12.0444 0C11.8848 0.0182626 11.7783 0.0182626 11.6896 0.0182626H11.6541C11.5477 0.0182626 11.4413 0.0182626 11.3348 0.0365252C11.2993 0.0365252 11.2639 0.0547878 11.2284 0.0547878C11.1574 0.0730503 11.0865 0.0730503 11.0155 0.0913129C10.98 0.0913129 10.9268 0.109576 10.8913 0.127838C10.8204 0.146101 10.7671 0.164363 10.6962 0.182626C10.6607 0.200888 10.6075 0.200888 10.572 0.219151C10.5188 0.237414 10.4478 0.255676 10.3946 0.292201C10.3591 0.310464 10.3059 0.328727 10.2704 0.346989C10.2172 0.365252 10.164 0.401777 10.1108 0.438302C10.0753 0.456565 10.0398 0.474827 10.0043 0.49309C9.95111 0.529615 9.8979 0.56614 9.84468 0.602665C9.8092 0.620928 9.77372 0.639191 9.73824 0.675716C9.68502 0.712241 9.6318 0.767029 9.57858 0.803554C9.5431 0.821816 9.52536 0.840079 9.48988 0.876604C9.41892 0.931392 9.34796 1.00444 9.277 1.07749L9.25926 1.09576C9.1883 1.16881 9.11734 1.24186 9.04638 1.33317C9.02864 1.35143 9.0109 1.38796 8.99317 1.40622C8.95768 1.46101 8.90447 1.51579 8.86899 1.58885C8.85125 1.62537 8.83351 1.6619 8.79803 1.69842C8.76255 1.75321 8.72707 1.808 8.69159 1.86278C8.67385 1.89931 8.65611 1.93583 8.63837 1.97236C8.60289 2.02715 8.58515 2.08194 8.54967 2.13672C8.53193 2.17325 8.51419 2.20977 8.49645 2.26456C8.47871 2.31935 8.46097 2.3924 8.42549 2.44719C8.40775 2.48371 8.39001 2.5385 8.39001 2.57502C8.37227 2.62981 8.35453 2.70286 8.33679 2.77591C8.31905 2.81244 8.31905 2.86723 8.30131 2.90375C8.30131 2.92201 8.30131 2.94028 8.28357 2.94028C8.23035 2.86723 8.15939 2.79418 8.08843 2.72113C8.07069 2.70286 8.07069 2.70286 8.05295 2.6846C7.982 2.61155 7.91104 2.55676 7.84008 2.48371C7.82234 2.46545 7.82234 2.46545 7.8046 2.44719C7.73364 2.3924 7.66268 2.31935 7.57398 2.26456C7.55624 2.26456 7.55624 2.2463 7.5385 2.2463C7.4498 2.19151 7.37884 2.13672 7.29014 2.08194C7.29014 2.08194 7.2724 2.08193 7.2724 2.06367C7.1837 2.00888 7.095 1.97236 7.00631 1.93583C6.98857 1.93583 6.98857 1.93583 6.97083 1.91757C6.88213 1.88105 6.79343 1.84452 6.68699 1.808C6.66925 1.808 6.65151 1.78973 6.63377 1.78973C6.54507 1.75321 6.45637 1.73495 6.34993 1.71668C6.33219 1.71668 6.31445 1.71668 6.29671 1.69842C6.20801 1.68016 6.10157 1.6619 5.99514 1.64363C5.9774 1.64363 5.95966 1.64363 5.95966 1.64363C5.85322 1.62537 5.74678 1.62537 5.64034 1.62537H5.60486C3.74218 1.62537 2.21655 3.19595 2.21655 5.11352V8.83909H2.19881V10.3731C2.19881 10.5923 2.21655 10.8297 2.21655 11.0306V11.1219C2.21655 11.2132 2.21655 11.3045 2.23429 11.4141C2.23429 11.4689 2.25203 11.5054 2.25203 11.5602C2.25203 11.5785 2.25203 11.5785 2.25203 11.5967C2.28751 12.0533 2.30525 12.6742 2.23429 13.0577C2.1456 13.4778 1.86176 13.9161 1.56018 14.4092C1.2586 14.884 0.921548 15.4319 0.67319 16.0711C0.602231 16.2354 0.549012 16.3998 0.495792 16.5642C1.16991 14.9388 2.51813 13.4961 4.25663 12.5647C3.9728 12.2725 3.75992 11.8889 3.68896 11.4506C3.68896 11.3959 3.67122 11.3593 3.67122 11.3045C3.67122 11.2498 3.67122 11.195 3.67122 11.1402V10.9758V10.3549V5.09526C3.67122 3.98124 4.55821 3.06811 5.64034 3.06811H5.67582C6.75795 3.06811 7.64494 3.98124 7.64494 5.09526V9.51481V11.1219C7.64494 11.2315 7.6272 11.3411 7.60946 11.4506C8.56741 11.2863 9.52536 11.2132 10.4833 11.195C9.96885 10.8297 9.6318 10.227 9.6318 9.53307V3.50642C9.68502 2.3924 10.5543 1.47927 11.6364 1.47927H11.6719C12.0799 1.47927 12.4524 1.60711 12.7717 1.82626C12.825 1.86278 12.8782 1.89931 12.9314 1.93583C13.0201 2.02715 13.1088 2.11846 13.1975 2.20977C13.4813 2.55676 13.641 3.01333 13.641 3.48815V9.51481C13.641 10.227 13.2862 10.848 12.7363 11.2132C13.3217 11.2315 13.8716 11.3776 14.3506 11.6333C14.3861 11.5785 14.4215 11.542 14.457 11.4872C14.4925 11.5785 14.5457 11.6698 14.5812 11.7794C15.1489 12.1446 15.6279 12.6377 15.9472 13.2586C16.4261 13.5326 16.9938 13.6969 17.597 13.6969H17.6325C18.6436 13.6969 19.5661 13.2221 20.187 12.4916V12.8203C20.187 14.7379 21.7126 16.3085 23.5753 16.3085H23.6108C24.3026 16.3085 24.9413 16.0893 25.4735 15.7423C25.1896 20.4541 24.3736 24.6362 22.6351 27.4121C22.5641 27.5217 22.5464 27.6496 22.5286 27.7774L22.1738 34.7902C22.1206 35.2285 21.7658 35.5573 21.3401 35.5573L6.56281 35.5938C6.11931 35.5938 5.76452 35.2285 5.72904 34.772C5.60486 33.1101 5.6226 31.4299 5.56938 29.768C5.48068 27.1382 4.07924 26.5355 2.66005 24.3075C1.31182 22.2073 1.09895 19.4497 1.8795 17.0755C1.68436 17.5321 1.54244 17.9886 1.48922 18.4635C1.436 18.8653 1.08121 19.1392 0.69093 19.1027C0.389353 19.0661 0.140996 18.8287 0.0877763 18.5365C-0.213801 20.8376 0.265174 23.2117 1.47148 25.1111C1.95046 25.8598 2.42943 26.4442 2.83745 26.9556C3.68896 27.9965 4.11472 28.5079 4.15019 29.8411C4.16793 30.3889 4.16793 30.9368 4.18567 31.4847C4.20341 32.5987 4.22115 33.7675 4.30985 34.9181C4.39855 36.1234 5.39198 37.0731 6.56281 37.0731C6.56281 37.0731 6.56281 37.0731 21.3401 37.0365C22.4754 37.0365 23.4334 36.1599 23.5753 34.9911V34.9363V34.8815L23.9301 28.0331C25.9879 24.5814 26.9991 19.1392 26.9991 11.3776V9.95311ZM19.6193 9.51481V10.2088C19.6193 11.3228 18.7323 12.2359 17.6502 12.2359H17.6147C16.5326 12.2359 15.6456 11.3228 15.6456 10.2088V9.51481V4.18213C15.6456 3.61599 15.8585 3.1229 16.2133 2.75765C16.4439 2.52024 16.71 2.35587 17.0116 2.26456C17.189 2.20977 17.3841 2.17325 17.597 2.17325H17.6325C17.8276 2.17325 18.0405 2.20977 18.2179 2.26456C18.5194 2.35587 18.8033 2.5385 19.0162 2.75765C19.371 3.1229 19.5838 3.63425 19.5838 4.18213V9.51481H19.6193ZM25.5799 11.3411V12.8021C25.5799 13.9161 24.6929 14.8292 23.6108 14.8292H23.5753C22.4932 14.8292 21.6062 13.9161 21.6062 12.8021V9.51481V6.79368C21.6062 5.67966 22.4932 4.76654 23.5753 4.76654H23.6108C24.2139 4.76654 24.7639 5.05874 25.1187 5.49704C25.2428 5.64314 25.3315 5.8075 25.4202 5.99013C25.4735 6.11797 25.5089 6.2458 25.5267 6.37364C25.5444 6.50148 25.5622 6.64758 25.5622 6.77542V11.3411H25.5799Z" fill="#C7C7C7"/>
<path d="M0.708623 19.0845C1.0989 19.1392 1.45369 18.847 1.50691 18.4453C1.56013 17.9704 1.70205 17.5139 1.89719 17.0573C1.95041 16.9112 2.00363 16.7651 2.05685 16.619C2.46486 15.578 3.20994 14.7927 3.56473 13.8248C3.77761 14.0075 4.00823 14.1536 4.27433 14.2814C4.70008 13.9892 5.16132 13.7335 5.65803 13.5326C6.61598 13.1309 7.64489 12.8934 8.69154 12.7656C8.8512 12.4551 8.97538 12.1081 9.04634 11.7429C9.34791 12.1264 9.73819 12.4369 10.1817 12.656C11.0155 12.6195 11.8315 12.6378 12.6475 12.6743H12.683C12.8072 12.6743 12.9314 12.6926 13.0555 12.7108C13.5877 12.4734 14.0312 12.1081 14.386 11.6333C13.8893 11.3776 13.3571 11.2315 12.7717 11.2133C12.4701 11.4142 12.0976 11.542 11.7073 11.542H11.6718C11.2638 11.542 10.8735 11.4142 10.5542 11.1768C9.59627 11.195 8.62058 11.2681 7.68037 11.4324C7.53845 12.4004 6.72242 13.1309 5.74673 13.1309H5.71125C5.17906 13.1309 4.68234 12.9117 4.34528 12.5465C2.5713 13.4961 1.24082 14.9388 0.548964 16.5642C0.336086 17.2034 0.194168 17.8609 0.105469 18.5183C0.158688 18.8105 0.407046 19.0479 0.708623 19.0845Z" fill="#C7C7C7"/>
<path d="M15.9646 13.2404C15.6453 12.6377 15.1663 12.1264 14.5986 11.7611C14.9002 12.382 15.3792 12.8934 15.9646 13.2404Z" fill="#C7C7C7"/>
</svg>
