<svg width="135" height="69" viewBox="0 0 135 69" fill="none" xmlns="http://www.w3.org/2000/svg">
<rect x="1" y="1" width="133" height="67" rx="6" stroke="black" stroke-width="2"/>
<path d="M81.864 29.514C81.864 29.598 81.864 29.668 81.864 29.71C81.864 30.018 81.822 30.494 81.738 31.068C81.514 32.832 81.024 34.568 80.422 35.87C79.834 37.158 79.26 38.012 78.42 38.852C79.092 39.216 79.358 39.426 80.016 40.056C81.892 37.9 82.984 35.142 83.572 31.124L83.614 30.788L83.684 30.382L83.712 30.144C83.726 30.032 83.74 30.018 83.782 29.864L81.864 29.514ZM86.022 29.85C86.092 30.06 86.134 30.284 86.218 30.858C86.764 34.624 88.066 37.844 89.928 40.07C90.46 39.468 90.754 39.23 91.468 38.782C90.012 37.214 89.032 35.324 88.346 32.734C88.024 31.53 87.772 30.158 87.758 29.514L86.022 29.85ZM90.11 28.73C89.228 28.73 88.5 29.458 88.5 30.34C88.5 31.236 89.228 31.964 90.11 31.964C91.006 31.964 91.734 31.236 91.734 30.34C91.734 29.458 91.006 28.73 90.11 28.73ZM90.11 29.43C90.628 29.43 91.034 29.836 91.034 30.34C91.034 30.844 90.628 31.264 90.11 31.264C89.606 31.264 89.2 30.844 89.2 30.34C89.2 29.836 89.606 29.43 90.11 29.43ZM92.994 35.604C93.554 35.534 93.708 35.534 95.276 35.534H102.71C104.278 35.534 104.432 35.534 104.992 35.604V33.658C104.376 33.742 104.11 33.756 102.724 33.756H95.262C93.876 33.756 93.61 33.742 92.994 33.658V35.604Z" fill="white"/>
<path d="M40.6601 15.3328C40.7268 15.3328 40.8101 15.3328 40.8767 15.3494C41.843 15.4661 42.5427 16.3157 42.5427 17.282V29.6435C42.5427 30.1599 42.9592 30.5598 43.459 30.5598C43.9588 30.5598 44.3753 30.1599 44.3753 29.6601V19.9309C44.3753 18.898 45.2416 18.0483 46.2745 18.0483C46.3411 18.0483 46.4244 18.0483 46.5077 18.065C47.474 18.1816 48.1737 19.0312 48.1737 19.9975V29.6268C48.1737 30.1433 48.5902 30.5598 49.1233 30.5598H49.1399C49.6231 30.5598 50.0062 30.1766 50.0062 29.6935V23.7293C50.0062 22.763 50.706 21.9134 51.6722 21.7968C51.7389 21.7801 51.7722 21.7801 51.8388 21.7801C52.8717 21.7801 53.6714 22.6297 53.6714 23.6626V30.5598C53.6714 36.4573 53.005 41.905 50.8892 45.187C50.8226 45.287 50.8059 45.4036 50.7893 45.5202L50.4561 51.9175C50.4061 52.3174 50.0729 52.6172 49.6731 52.6172L35.8122 52.6506C35.3957 52.6506 35.0625 52.3174 35.0292 51.9009L34.8292 45.6202L26.8825 35.1412C26.1495 34.4082 26.1495 33.2253 26.8825 32.509C27.2491 32.1424 27.7322 31.9592 28.1987 31.9592C28.6818 31.9592 29.1483 32.1424 29.5148 32.509L31.7472 34.6247C31.9138 34.7913 32.0804 34.858 32.2803 34.858C32.7301 34.858 33.0966 34.5081 33.0966 33.9917V19.9309C33.0966 18.898 33.9963 18.0483 35.0292 18.0483C35.0958 18.0483 35.1624 18.0483 35.2457 18.065C36.212 18.1816 36.895 19.0312 36.895 19.9975V29.6601C36.895 30.1599 37.2949 30.5764 37.8113 30.5764C38.3111 30.5764 38.7276 30.1599 38.7276 29.6601V17.2153C38.7443 16.1824 39.6272 15.3328 40.6601 15.3328ZM40.6601 14C38.8776 14 37.4115 15.4494 37.4115 17.2153V17.7818C36.9117 17.2153 36.212 16.8322 35.4123 16.7322C35.279 16.7155 35.1624 16.7155 35.0458 16.7155C34.1962 16.7155 33.3798 17.0487 32.7634 17.6485C32.1304 18.2649 31.7805 19.0812 31.7805 19.9475V32.7922L30.4477 31.5427C29.848 30.9429 29.0483 30.6264 28.1987 30.6264C27.349 30.6264 26.5327 30.9596 25.9329 31.5594C25.3332 32.1424 25 32.9421 25 33.8084C25 34.6247 25.2999 35.4077 25.8663 35.9908L33.5131 46.07L33.6964 51.9509V51.9842V52.0175C33.7797 53.1337 34.7126 54 35.8122 54L49.6897 53.9667C50.7559 53.9667 51.6556 53.167 51.7888 52.1008V52.0508V52.0008L52.122 45.7534C54.0546 42.6047 55.0042 37.6402 55.0042 30.5598V23.6626C55.0042 21.88 53.5881 20.4473 51.8388 20.4473C51.7055 20.4473 51.6222 20.464 51.5389 20.464H51.5056C50.706 20.5639 50.0062 20.9471 49.5065 21.5135V19.9975C49.5065 18.3315 48.2736 16.9321 46.6576 16.7489C46.541 16.7322 46.4077 16.7322 46.2745 16.7322C45.4248 16.7322 44.6085 17.0654 43.9921 17.6651C43.9421 17.7151 43.9088 17.7484 43.8755 17.7984V17.2986C43.8755 15.6327 42.6593 14.2332 41.0433 14.05C40.91 14 40.7934 14 40.6601 14Z" fill="white"/>
</svg>
