<svg width="135" height="69" viewBox="0 0 135 69" fill="none" xmlns="http://www.w3.org/2000/svg">
<rect x="1" y="1" width="133" height="67" rx="6" stroke="black" stroke-width="2"/>
<path d="M83.5485 28.674C83.5205 29.038 83.2265 29.738 82.6665 30.704C81.6445 32.454 80.5245 33.686 79.1525 34.554C79.5585 34.792 79.6985 34.932 79.9365 35.268C81.1825 34.372 82.5125 32.902 83.2825 31.628L88.0005 31.558C86.9225 35.436 84.2905 38.376 80.6505 39.776C81.0005 40.042 81.1405 40.224 81.3505 40.602C85.2425 38.866 87.6785 36.122 88.9665 32.006C89.0785 31.642 89.0925 31.614 89.2045 31.46L88.3645 30.578C88.1685 30.662 88.1265 30.662 87.6365 30.676L84.2485 30.732C83.9825 30.732 83.8565 30.746 83.7445 30.774C83.8845 30.578 84.0385 30.256 84.3885 29.542C84.5565 29.164 84.5705 29.15 84.6965 28.968L83.5485 28.674ZM88.3225 28.898C88.7705 29.36 89.4005 30.326 89.7505 31.054L90.4505 30.634C90.0165 29.794 89.7085 29.332 89.0225 28.52L88.3225 28.898ZM89.9045 28.128C90.4925 28.8 90.9965 29.57 91.3325 30.27L92.0325 29.864C91.5285 28.954 91.2905 28.59 90.5905 27.736L89.9045 28.128ZM92.1575 35.198C92.5775 35.156 92.8715 35.142 93.8935 35.142H102.013C102.951 35.142 103.273 35.156 103.721 35.198V34.064C103.287 34.12 103.063 34.134 102.027 34.134H93.8935C92.9415 34.134 92.5635 34.12 92.1575 34.05V35.198Z" fill="#C7C7C7"/>
</svg>
