<svg width="135" height="69" viewBox="0 0 135 69" fill="none" xmlns="http://www.w3.org/2000/svg">
<rect x="1" y="1" width="133" height="67" rx="6" stroke="black" stroke-width="2"/>
<path d="M91.622 39.342C90.908 39.09 90.404 38.768 89.872 38.222C89.382 37.704 89.102 37.312 88.724 36.556C88.85 36.15 88.906 35.954 89.074 35.24C89.158 34.89 89.2 34.722 89.27 34.484L88.318 34.274C88.234 35.268 87.954 36.332 87.52 37.34C87.016 38.558 86.47 39.356 85.56 40.294C85.896 40.49 86.036 40.602 86.316 40.91C87.212 39.916 87.716 39.062 88.36 37.536C89.718 39.888 91.58 40.714 95.542 40.714C96.382 40.714 97.026 40.7 97.81 40.672C97.866 40.252 97.922 40.084 98.118 39.692C97.012 39.776 95.976 39.818 95.192 39.818C94.24 39.818 93.414 39.748 92.518 39.58V36.64H95.962C96.592 36.64 96.886 36.654 97.278 36.71V35.758C96.956 35.814 96.648 35.828 95.962 35.828H92.518V33.448H95.108C95.78 33.448 96.144 33.462 96.592 33.504C96.55 33.112 96.536 32.888 96.536 32.454V30.018C96.536 29.584 96.55 29.318 96.592 28.968C96.214 29.024 95.822 29.038 95.01 29.038H89.102C88.458 29.038 87.926 29.01 87.52 28.968C87.562 29.318 87.576 29.584 87.576 30.018V32.454C87.576 32.874 87.562 33.126 87.52 33.504C87.94 33.462 88.36 33.448 89.004 33.448H91.622V39.342ZM95.64 29.85V32.65H88.472V29.85H95.64Z" fill="#C7C7C7"/>
<path d="M36.0967 14.0594C36.4483 14.0594 36.7998 14.1389 37.1379 14.3111C37.9356 14.6819 38.206 15.3705 38.1925 16.2181C38.179 17.8735 38.1925 19.5156 38.1925 21.171C38.1925 21.7802 38.1925 21.3299 38.1925 21.9656H39.788C39.788 19.8069 39.7745 18.7475 39.788 16.6418C39.788 15.8075 40.3424 15.3308 41.2077 15.3308C41.2077 15.3308 41.2077 15.3308 41.2213 15.3308C42.1001 15.3308 42.6139 15.8075 42.6139 16.6551C42.6139 18.8137 42.6139 19.9129 42.6139 22.0583C42.6139 22.2966 42.6139 22.535 42.6139 22.7999H44.2094C44.2094 22.5483 44.2094 22.3364 44.2094 22.1245C44.2094 20.4559 44.2094 19.8467 44.2094 18.1648C44.2094 17.3437 44.6151 16.9067 45.3858 16.9067H45.3993C46.1835 16.92 46.5756 17.3305 46.5756 18.1913C46.5756 20.0453 46.5756 20.8267 46.5756 22.6807C46.5756 22.9191 46.5756 23.1442 46.5756 23.3958H48.1711C48.1711 22.8131 48.1711 22.2834 48.1711 21.7669C48.1711 20.6015 48.1576 20.4956 48.1846 19.3302C48.1982 18.7343 48.5497 18.4429 49.1852 18.4429H49.1987C49.8072 18.4429 50.1452 18.7343 50.1722 19.2905C50.1858 19.7805 50.1722 20.2572 50.1722 20.7472C50.1722 22.1775 50.1722 22.535 50.1722 23.9785H51.7677C51.7677 22.6675 51.7813 22.482 51.7677 21.224C51.7677 20.7472 51.957 20.4823 52.4573 20.4294C52.5114 20.4294 52.552 20.4161 52.5925 20.4161C53.0252 20.4161 53.2956 20.628 53.3497 21.0915C53.5525 22.972 53.8094 23.7931 53.8905 25.6736C54.0663 29.289 53.4038 32.8779 52.89 36.4535C52.7953 37.1024 52.0111 44.6642 51.3215 50.425C50.8753 54.1463 47.6438 56.9538 43.8173 56.9538H43.8038H43.0466C39.2607 56.9538 36.0697 54.2125 35.5694 50.5441C34.8663 45.3264 33.9739 38.824 33.9334 38.6386C33.6629 37.0097 33.379 35.3808 33.0815 33.7652C32.6218 31.2357 31.9052 28.7328 32.0945 26.1371C32.2297 24.3626 32.419 23.6474 32.6353 21.8861C32.8517 20.0718 33.1221 18.2707 33.406 16.4697C33.5413 15.6354 34.028 14.96 34.7446 14.4832C35.1908 14.2051 35.637 14.0594 36.0967 14.0594ZM36.0967 13C35.4207 13 34.7717 13.1986 34.1632 13.5959C33.1627 14.2581 32.5407 15.1851 32.3649 16.2975C32.0675 18.1648 31.797 19.9923 31.5807 21.7537C31.4996 22.4158 31.4184 22.9191 31.3508 23.4091C31.2291 24.1904 31.121 24.932 31.0398 26.0577C30.8776 28.2428 31.3103 30.3352 31.7159 32.3481C31.8241 32.8779 31.9322 33.4208 32.0269 33.9506C32.3244 35.5662 32.5948 37.1686 32.8652 38.8108C32.8787 38.93 33.1221 40.6383 34.5013 50.6766C34.7852 52.7028 35.7993 54.57 37.3677 55.9076C38.9362 57.2584 40.9508 58 43.0466 58H43.8038H43.8173C48.1982 58 51.8759 54.7952 52.3897 50.5309C52.8224 46.9023 53.2956 42.5453 53.6066 39.6716C53.7824 38.0692 53.9176 36.7978 53.9446 36.5859C54.0122 36.0959 54.0934 35.6059 54.161 35.116C54.6207 32.0303 55.1074 28.8255 54.9587 25.6074C54.9046 24.4288 54.7829 23.6474 54.6613 22.8131C54.5801 22.2702 54.4855 21.7007 54.4179 20.9591C54.3097 19.9791 53.5931 19.3434 52.5925 19.3434C52.5114 19.3434 52.4303 19.3434 52.3491 19.3567C51.9029 19.3964 51.5244 19.5553 51.2539 19.7937C51.2539 19.6083 51.2539 19.4097 51.2404 19.2242C51.1998 18.0986 50.4021 17.357 49.1987 17.357H49.1717C48.5497 17.357 48.0224 17.5556 47.6573 17.8999C47.5491 16.6286 46.7108 15.8473 45.4263 15.8473H45.3993C44.6827 15.8473 44.0877 16.0989 43.6956 16.5359C43.6551 15.1719 42.668 14.2581 41.2348 14.2581H41.2213C40.3289 14.2581 39.5987 14.6157 39.166 15.2116C38.8956 14.1786 38.206 13.6357 37.6111 13.3443C37.1108 13.1192 36.597 13 36.0967 13Z" fill="#C7C7C7" stroke="#C7C7C7" stroke-width="0.5" stroke-linejoin="round"/>
</svg>
